<svg width="38" height="45" viewBox="0 0 38 45" fill="none" xmlns="http://www.w3.org/2000/svg">
<path d="M10.8276 10.9073C12.1044 10.2281 13.4559 9.70516 14.8414 9.35879C19.772 8.13632 24.8181 9.16863 28.7911 11.9124C28.6756 11.2944 28.6145 10.6288 28.6417 9.92928C24.4853 7.45038 19.4188 6.59466 14.4611 7.81712C12.9466 8.19066 11.4728 8.76114 10.0805 9.50821C5.63891 11.8852 2.39257 15.8515 0.932405 20.6734C-0.527766 25.4954 -0.0184039 30.5958 2.35862 35.0374C6.43351 42.6507 15.1266 46.5218 23.5005 44.4436C25.015 44.0701 26.4888 43.4996 27.881 42.7525C27.8878 42.7525 27.8946 42.7458 27.8946 42.7458C26.7197 42.8273 25.6127 42.739 24.5736 42.4741C24.0914 42.6371 23.6092 42.7865 23.1134 42.9087C15.4458 44.8036 7.4794 41.2652 3.75087 34.2903C1.5708 30.2222 1.10898 25.5497 2.44691 21.1352C3.78483 16.714 6.7595 13.0805 10.8276 10.9073Z" fill="#FFFDEB"/>
<path d="M35.6039 17.23C35.2235 16.5169 34.7957 15.831 34.3339 15.1858C33.872 14.5406 33.3763 13.9226 32.8465 13.3521C32.2489 12.6729 31.9432 11.8647 31.9229 11.8172C31.5493 10.5336 31.4543 8.55728 33.2472 6.65566C34.3203 5.51469 34.9519 4.49597 35.305 3.61986C35.305 3.61986 37.5326 8.18374 34.7345 12.3877C34.7345 12.3877 37.6277 10.4793 37.6345 7.13785C37.6345 7.05636 37.6345 6.97486 37.6277 6.88657C37.6277 6.85261 37.6277 6.82545 37.6209 6.79149C37.4647 3.28029 35.3458 0.156204 35.2371 0C35.2371 0 34.2116 2.87959 33.288 4.08168C32.9959 4.52992 32.6088 5.0257 32.0995 5.56223C30.422 7.34839 30.0213 9.29755 30.1707 10.9479C30.2318 11.6134 30.3812 12.2315 30.5782 12.768C30.6529 12.9514 30.8974 13.5354 31.3592 14.0788C31.4543 14.1738 31.5493 14.2757 31.6376 14.3776C31.658 14.3912 31.6716 14.4115 31.692 14.4251H31.6852C31.9093 14.6628 32.1266 14.9141 32.3304 15.1654C33.0367 16.0279 33.6683 16.9583 34.2048 17.9703C37.5191 24.1641 36.6633 31.4921 32.6156 36.7216C32.8058 36.8235 32.9348 36.8778 32.9891 36.8982L34.2524 37.1766C38.3408 31.5193 39.1151 23.7906 35.6039 17.23Z" fill="#FFFDEB"/>
<path d="M20.0047 39.6658L19.8757 39.5232C14.6938 39.8696 9.68168 37.1802 7.16204 32.4669C3.67121 25.947 6.13652 17.7972 12.6564 14.3064C13.6479 13.7767 14.6938 13.3692 15.7736 13.1043C17.1387 12.7648 18.5242 12.6493 19.8689 12.7444C19.8825 12.6765 19.8961 12.6357 19.9029 12.6153L20.29 11.1823C18.6804 11.0397 17.0301 11.162 15.3933 11.5627C14.1844 11.8615 13.0163 12.3165 11.9093 12.9074C4.60844 16.8057 1.85789 25.9199 5.76299 33.2071C8.81237 38.9052 15.1081 41.9614 21.3902 40.9358C20.8944 40.5691 20.4326 40.1412 20.0047 39.6658Z" fill="#FFFDEB"/>
<path d="M30.2474 18.8458C31.4902 19.5385 32.441 20.3535 33.1609 21.2228C32.9028 20.4825 32.5836 19.7558 32.2101 19.0495C30.3221 15.5179 27.1844 13.0051 23.5781 11.8438C23.8837 12.4618 24.3252 13.2496 24.9364 14.0985C27.0622 15.1512 28.9094 16.7676 30.2474 18.8458Z" fill="#FFFDEB"/>
<path d="M33.7696 27.2186C33.7289 25.6565 33.2942 23.653 31.7186 21.9144C31.1345 21.2692 30.3943 20.6648 29.457 20.1282C28.6353 19.6596 27.9154 19.1774 27.2838 18.6952C26.5231 18.118 25.8915 17.5407 25.3686 16.9906C24.7505 16.3386 24.2751 15.7274 23.922 15.184C23.5892 14.7426 23.2224 14.0295 22.8829 13.2824C22.5976 12.6508 22.326 11.992 22.1154 11.4487C22.0407 11.2586 21.9728 11.082 21.9117 10.9258L21.7894 11.3876L21.3752 12.9225L21.3548 13.004C21.3276 13.0991 21.1103 13.9344 20.9541 15.1569C20.893 15.6323 20.8386 16.1688 20.8183 16.7461C20.7164 19.062 21.022 21.9891 22.747 24.1692C24.0646 25.8331 26.0002 26.7975 28.5062 27.0556C29.0088 27.1099 29.5385 27.1303 30.0886 27.1303C30.2313 27.1303 30.3739 27.1303 30.5233 27.1235C20.4787 25.4528 22.4686 15.8768 22.4686 15.8768C22.9032 16.5695 23.4941 17.3573 24.3023 18.1859C24.8388 18.736 25.4704 19.3065 26.2039 19.8702C26.917 20.4203 27.732 20.9704 28.6624 21.5001C28.8798 21.6292 29.0903 21.7582 29.2872 21.894C32.4792 24.1013 32.391 27.4155 32.0106 29.3036C31.9495 29.5413 31.8884 29.779 31.8205 30.0167C31.5964 30.7501 31.3179 31.4565 30.9783 32.1288C30.5844 32.9166 30.1158 33.6637 29.5861 34.3564C29.8034 34.5194 30.0207 34.696 30.2313 34.8929C30.4282 35.0763 30.6116 35.2461 30.7882 35.4023C31.4334 34.5805 31.9903 33.6909 32.4521 32.74C32.6694 32.2918 32.8664 31.83 33.0429 31.3546C33.1516 31.0625 33.2535 30.7705 33.3418 30.4785C33.4029 30.2883 33.4504 30.0914 33.5048 29.9012C33.661 29.1745 33.7968 28.2441 33.7696 27.2186Z" fill="#FFFDEB"/>
<path d="M29.6476 29.3619C29.7224 29.1242 29.7835 28.8797 29.8378 28.642C29.2809 28.642 28.7444 28.608 28.2282 28.5469C28.1943 28.6691 28.1671 28.7846 28.1264 28.9068C27.6374 30.5164 26.7613 31.929 25.5728 33.0564C26.1908 33.07 26.836 33.1583 27.4812 33.3417C28.4659 32.1871 29.1994 30.8424 29.6476 29.3619Z" fill="#FFFDEB"/>
<path d="M33.2197 38.4959L32.5949 38.3601C32.5881 38.3601 32.2485 38.265 31.6305 37.8982C31.1686 37.6266 30.5506 37.1919 29.7968 36.5332C29.6066 36.3634 29.4029 36.18 29.1923 35.983C29.0022 35.7997 28.7984 35.6435 28.5947 35.5008C27.8408 34.9779 27.019 34.7198 26.2177 34.618C24.6217 34.4142 23.1139 34.8217 22.4348 35.0526C22.3193 35.1001 22.2039 35.1409 22.0884 35.1816C21.8168 35.2767 21.5451 35.3582 21.2667 35.4261C21.0425 35.4805 20.8116 35.528 20.5875 35.5688C16.5602 36.2615 12.5056 34.3123 10.5497 30.6585C9.34759 28.3969 9.08952 25.8094 9.82979 23.3645C10.5701 20.9195 12.2136 18.9092 14.4684 17.7071C15.1747 17.3268 15.9218 17.0416 16.6892 16.8514C17.5653 16.6341 18.455 16.5458 19.3243 16.5798C19.3515 16.0093 19.399 15.4795 19.4601 14.9973C18.421 14.9566 17.3615 15.0517 16.3089 15.3165C15.4124 15.5407 14.5431 15.8734 13.7213 16.3149C11.0998 17.7207 9.17781 20.0638 8.31529 22.9162C7.45277 25.7686 7.75159 28.7773 9.15743 31.4056C11.385 35.5688 15.9489 37.8303 20.5332 37.1851C20.9067 37.1308 21.2802 37.0629 21.6538 36.9678C22.102 36.8591 22.5435 36.7165 22.9713 36.5535C23.7184 36.3022 25.7694 35.7589 27.3722 36.6146C27.6303 36.7505 27.8748 36.9203 28.0989 37.1376C28.2823 37.3142 28.4588 37.4772 28.6354 37.6266C29.3417 38.2514 29.953 38.7132 30.4623 39.046C30.4827 39.0596 30.5031 39.0732 30.5235 39.0868C25.4978 41.0631 21.1172 38.6725 21.1172 38.6725C21.3074 38.8898 21.5111 39.0868 21.7217 39.2769C22.2514 39.7591 22.8287 40.153 23.4535 40.4654C24.5945 41.0291 25.8917 41.3076 27.2975 41.2804C27.7593 41.2736 28.2347 41.2329 28.7237 41.1582C29.1176 41.097 29.4979 41.0223 29.8511 40.934C30.3333 40.8118 30.7747 40.676 31.1619 40.5401C32.1262 40.2006 32.7375 39.861 32.785 39.8406L34.6323 38.8287L33.2197 38.4959Z" fill="#FFFDEB"/>
<path d="M29.2982 21.8962C29.1013 21.7603 28.8975 21.6313 28.6734 21.5023C27.7362 20.9657 26.928 20.4156 26.2149 19.8723C25.4746 19.3018 24.843 18.7381 24.3133 18.188C23.5051 17.3595 22.9142 16.5716 22.4796 15.8789C22.4796 15.8789 21.0466 24.4022 30.2423 25.9099C29.3933 23.6823 27.0231 21.9165 27.0231 21.9165C31.3832 23.7842 32.008 25.7537 32.0828 26.0661C31.7907 24.6128 31.0301 23.0915 29.2982 21.8962Z" fill="#50FFB1"/>
<path d="M28.1017 37.1233C27.8776 36.9059 27.6331 36.7362 27.375 36.6003C25.7722 35.7446 23.728 36.2879 22.9741 36.5392C22.5463 36.7022 22.1048 36.8448 21.6566 36.9535C21.3781 37.0214 21.0929 37.0757 20.8145 37.1233C23.7755 36.7022 26.5397 38.0197 26.5397 38.0197C24.9573 37.6394 23.402 37.9111 22.3629 38.2099C25.9013 40.0776 30.4652 39.0385 30.4652 39.0385C29.9558 38.7057 29.3378 38.2439 28.6382 37.6191C28.4617 37.4629 28.2851 37.2999 28.1017 37.1233Z" fill="#50FFB1"/>
<path d="M35.314 3.61328C34.9609 4.48938 34.3293 5.50811 33.2562 6.64908C31.4633 8.55749 31.5583 10.527 31.9319 11.8106C31.9522 11.8649 32.2579 12.6663 32.8555 13.3455C32.9642 13.4677 33.0796 13.59 33.1883 13.7122C31.7757 10.5134 33.7859 7.35539 33.7859 7.35539C33.2494 9.20947 33.8878 10.8666 34.3496 11.7359C36.5976 7.14486 35.314 3.61328 35.314 3.61328Z" fill="#50FFB1"/>
</svg>
