<?xml version="1.0" encoding="utf-8"?>
<!-- Generator: Adobe Illustrator 26.0.1, SVG Export Plug-In . SVG Version: 6.00 Build 0)  -->
<svg version="1.1" id="Layer_1" xmlns="http://www.w3.org/2000/svg" xmlns:xlink="http://www.w3.org/1999/xlink" x="0px" y="0px"
	 viewBox="0 0 219.21 112.82" style="enable-background:new 0 0 219.21 112.82;" xml:space="preserve">
<style type="text/css">
	.st0{fill:#2B318D;}
	.st1{fill:none;stroke:#004C47;stroke-miterlimit:10;}
</style>
<g>
	<path class="st0" d="M205.01,62.07c-0.18,10.98-8.4,19.52-17.02,25.08c-23.58,14.49-52.25,18.38-79.34,19.16
		c0,0-0.02-4.75-0.02-4.75c-10,0.99-20.14,1.08-30.2,0.4c-20.3-1.72-42.81-5.9-58.99-19.37c-5.39-4.57-10.25-11.71-10.7-19.22
		C6.86,38.63,52.33,22.06,71.9,17.64c35.46-8.87,70.02-4.56,102.44,12.25C186.05,36.17,204.81,47.12,205.01,62.07L205.01,62.07z
		 M194.51,62.07c-0.82-4.98-5.19-8.15-9.3-11.02c-15.96-9.92-35.23-13.38-53.58-16.04c-24.84-3.63-50.03-2.18-74.01,5.54
		c-11.1,3.65-22.98,8.18-31.47,16.26c-2,2.06-2.93,3.62-3.27,5.25c0.01,0.67-0.03,1.34,0.09,2c0,0,0.03,0.37,0.03,0.37l0.1,0.37
		c1.37,6.04,6.63,10.56,11.68,14.24C50.65,89.71,70.16,94.8,88.92,98.08c6.5,1.07,13.08,1.89,19.71,2.47c0,0-0.02-4.75-0.02-4.75
		c24.84-0.04,52.73-3.35,73.95-16.84C188.5,75.05,194.56,69.13,194.51,62.07L194.51,62.07z"/>
</g>
<path class="st1" d="M93.76,276.06"/>
</svg>
