<svg xmlns="http://www.w3.org/2000/svg" width="100%" height="100%" viewBox="0 0 650.992 138.173">
  <g opacity=".27">
    <path d="m255.476 18.309 25.578-15.661v133.91h-25.578zm-1.483-.831v120.567h28.545V0z" fill="#dbab24"/>
    <path fill="#dbab24" d="M260.533 24.309h1.483v57.214h-1.483zm6.991-6.349h1.483v86.325h-1.483zm6.99-5.223h1.483v110.205h-1.483zM212.31 25.049h41.682v111.6H212.31zm-1.483 113.087h44.648V23.566h-44.648z"/>
    <path d="M251.305 28.081h-35.939v10.706h35.939zm-1.483 9.223h-32.973v-7.739h32.976zm1.483 4.369h-35.939v10.705h35.939zm-1.483 9.222h-32.973v-7.742h32.976zm1.483 4.368h-35.939v10.706h35.939zm-1.483 9.223h-32.973v-7.739h32.976zm1.483 4.369h-35.939v10.708h35.939zm-1.483 9.222h-32.973v-7.739h32.976zm1.483 4.369h-35.939v10.705h35.939zm-1.48 9.221h-32.976v-7.738h32.976zm1.48 4.37h-35.939v10.706h35.939zm-1.483 9.223h-32.973v-7.74h32.976zm1.483 4.368h-35.939v10.705h35.939zm-1.483 9.222h-32.973v-7.739h32.976zm1.483 4.37h-35.939v10.7h35.939zm-1.483 9.221h-32.973v-7.738h32.976zm-154.573-3.709h14.07v7.869h-14.07zM83.774 24.854h37.02v111.8h-9.992v-9.4H93.766v9.4h-9.992zm0-4.773h37.02v3.29h-37.02zm7.292-16.988v15.502h-8.775v119.541h39.987V18.595H92.55v-15.5z" fill="#dbab24"/>
    <path fill="#dbab24" d="M91.808 32.863h21.763v1.483H91.808zm0 10.725h21.763v1.483H91.808zm0 10.724h21.763v1.483H91.808zm0 10.724h21.763v1.483H91.808zm0 10.724h21.763v1.483H91.808zm0 10.724h21.763v1.483H91.808zm0 10.724h21.763v1.483H91.808zm0 10.725h21.763v1.483H91.808zm0 10.724h21.763v1.483H91.808zM79.551 53.385v-10.74H31.022v10.74H27.79v84.741h55.768V53.385zm-47.046-9.257h45.563v9.257H32.505zm7.108 81.749h13.51v10.765H39.614zm19.128 0h13.512v10.765H58.742zm23.338 10.766h-8.343v-11.507a.742.742 0 0 0-.742-.742H58a.742.742 0 0 0-.742.742v11.507h-2.652v-11.507a.742.742 0 0 0-.742-.742H38.872a.742.742 0 0 0-.742.742v11.507h-8.857V54.869h52.806z"/>
    <path d="M71.943 47.599H39.278a.742.742 0 1 0 0 1.483h32.665a.742.742 0 1 0 0-1.483M33.349 67.915h12.6v-9.348h-12.6zm1.483-7.865h9.632v6.382h-9.632zm14.801 7.865h12.6v-9.348h-12.6zm1.483-7.865h9.631v6.382h-9.631zm14.801 7.865h12.6v-9.348h-12.6zM67.4 60.05h9.631v6.382h-9.632zM33.349 78.73h12.6v-9.348h-12.6zm1.483-7.865h9.632v6.381h-9.632zm14.801 7.865h12.6v-9.348h-12.6zm1.483-7.865h9.631v6.381h-9.631zm14.801 7.865h12.6v-9.348h-12.6zm1.483-7.865h9.631v6.381h-9.632zm-34.051 18.68h12.6v-9.348h-12.6zm1.483-7.865h9.632v6.386h-9.632zm14.801 7.865h12.6v-9.348h-12.6zm1.483-7.865h9.631v6.386h-9.631zm14.801 7.865h12.6v-9.348h-12.6zM67.4 81.68h9.631v6.386h-9.632zm-34.051 18.68h12.6v-9.351h-12.6zm1.483-7.865h9.632v6.382h-9.632zm14.801 7.865h12.6v-9.351h-12.6zm1.483-7.865h9.631v6.382h-9.631zm14.801 7.865h12.6v-9.351h-12.6zm1.483-7.865h9.631v6.382h-9.632zm-34.051 18.68h12.6v-9.349h-12.6zm1.483-7.865h9.632v6.382h-9.632zm14.801 7.865h12.6v-9.349h-12.6zm1.483-7.865h9.631v6.382h-9.631zm14.801 7.865h12.6v-9.349h-12.6zm1.483-7.865h9.631v6.382h-9.632zm-34.051 18.681h12.6v-9.349h-12.6zm1.483-7.866h9.632v6.382h-9.632zm14.801 7.866h12.6v-9.349h-12.6zm1.483-7.866h9.631v6.382h-9.631zm14.801 7.866h12.6v-9.349h-12.6zm1.483-7.866h9.631v6.382h-9.632zm144.527-70.423H174.35v94.346h37.577zm-36.093 1.483h4.666v91.379h-4.666zm6.149 0h7.877v91.379h-7.877zm24.339 91.379h-4.526v-5.98h4.526zm-6.01 0h-4.525v-5.98h4.525zm10.132 0h-2.638V129.1h-13.5v7.464h-2.967V45.185h19.1z" fill="#dbab24"/>
    <path d="M206.636 46.767h-11.165v8.4h11.165zm-1.483 6.917h-8.2V48.25h8.2zm1.483 4.838h-11.165v8.4h11.165zm-1.483 6.918h-8.2v-5.435h8.2zm1.483 4.845h-11.165v8.4h11.165zm-1.483 6.919h-8.2v-5.435h8.2zm1.483 4.841h-11.165v8.4h11.165zm-1.483 6.917h-8.2v-5.433h8.2zm1.483 4.843h-11.165v8.4h11.165zm-1.483 6.918h-8.2v-5.434h8.2zm1.483 4.842h-11.165v8.4h11.165zm-1.483 6.917h-8.2v-5.433h8.2zm1.483 4.841h-11.165v8.4h11.165zm-1.483 6.918h-8.2v-5.432h8.2zm75.901-69.099v82.993h60.36V55.142zm58.877 81.51h-57.393V63.607h57.393zm-57.393-80.026h57.393v5.373h-57.393z" fill="#dbab24"/>
    <path d="M288.293 138.045h45.727v-13.714h-45.727zm1.483-12.231h20.717v11.242h-20.717zm42.76 11.242h-20.559v-11.242h20.559zm-45.989-60.599h12.033v-9.34h-12.033zm3.832-7.856h6.718v6.373h-6.718zm-2.349 0h.865v6.373h-.864zm16.959 7.856h12.033v-9.34h-12.033zm3.833-7.856h6.717v6.373h-6.717zm-2.349 0h.866v6.373h-.866zm16.956 7.856h12.033v-9.34h-12.033zm2.35-1.483h-.866v-6.373h.866zm8.2 0h-6.717v-6.373h6.717zm-47.432 16.194h12.033v-9.34h-12.033zm3.832-7.856h6.718v6.373h-6.718zm-2.349 0h.865v6.373h-.864zm16.959 7.856h12.033v-9.34h-12.033zm3.833-7.856h6.717v6.373h-6.717zm-2.349 0h.866v6.373h-.866zm16.956 7.856h12.033v-9.34h-12.033zm3.833-7.856h6.717v6.373h-6.717zm-2.35 0h.866v6.373h-.866zm-38.365 22.568h12.033v-9.34h-12.033zm3.832-7.857h6.718v6.374h-6.718zm-2.349 0h.865v6.374h-.864zm16.959 7.857h12.033v-9.34h-12.033zm3.833-7.857h6.717v6.374h-6.717zm-2.349 0h.866v6.374h-.866zm16.956 7.857h12.033v-9.34h-12.033zm3.833-7.857h6.717v6.374h-6.717zm-2.35 0h.866v6.374h-.866zm-38.365 22.568h12.033v-9.34h-12.033zm3.832-7.856h6.718v6.373h-6.718zm-2.349 0h.865v6.373h-.864zm16.959 7.856h12.033v-9.34h-12.033zm3.833-7.856h6.717v6.373h-6.717zm-2.349 0h.866v6.373h-.866zm16.956 7.856h12.033v-9.34h-12.033zm3.833-7.856h6.717v6.373h-6.717zm-2.35 0h.866v6.373h-.866zm-14.995-64.466V37.508h-1.483v10.759h-1.72v-6.295h-1.487v6.295h-14.86v8.33h21.611v-8.33zm.577 6.846h-18.643v-5.364h18.643zM429.13 84.656a8.569 8.569 0 0 0-8.1-8.574c-1.2-2.708-6.8-2.93-8.586-2.93-5.911 0-11.9 1.857-11.9 5.407v.156a7.73 7.73 0 0 0-3.694 9.195 10.169 10.169 0 0 0-6.388 8.894c-.112 5.64 5.063 10.341 11.538 10.479 1.277.026 3.682.04 7.336.041v29.956a.742.742 0 1 0 1.483 0v-29.957h6.511a11.258 11.258 0 0 0 11.328-11.16 10.986 10.986 0 0 0-1.663-5.827 8.544 8.544 0 0 0 2.124-5.672m-1.944 11.5a9.773 9.773 0 0 1-9.845 9.677h-2.4c-1.479 0-3.313.005-5.161.005-3.889 0-6.419-.013-7.736-.04-5.658-.121-10.182-4.143-10.086-8.965.072-3.392 2.471-6.459 6.112-7.816l.733-.272-.311-.718a6.248 6.248 0 0 1 3.131-8.186l.466-.211-.032-.511a8.686 8.686 0 0 1-.019-.561c0-2.348 5.384-3.924 10.412-3.924 3.994 0 7.068.971 7.309 2.311l.109.611h.741a7.113 7.113 0 0 1 4.935 12.164l-.444.44.358.513a9.52 9.52 0 0 1 1.73 5.483M386.62 72.732v-2.074a.742.742 0 0 0-.742-.742.731.731 0 0 0-.31.07h-6.342a.739.739 0 0 0-.54.236c-.006.005-.013.006-.019.011l-7.549 7.037-7.55-7.037s-.012-.005-.017-.01a.737.737 0 0 0-.541-.238h-6.343a.73.73 0 0 0-.31-.07.742.742 0 0 0-.742.742v2.074a6.2 6.2 0 1 0 1.483.007v-1.27h5.617l7.657 7.137v41.841h-1.268a1.46 1.46 0 0 0-1.572 1.354v14.767a1.46 1.46 0 0 0 1.572 1.354h4.021a1.459 1.459 0 0 0 1.571-1.354v-14.766a1.459 1.459 0 0 0-1.571-1.354h-1.27v-41.84l7.658-7.139h5.619v1.27a6.189 6.189 0 1 0 1.484-.007m-13.4 49.21v14.486a.363.363 0 0 1-.088.011h-4.021a.33.33 0 0 1-.089-.011v-14.485a.339.339 0 0 1 .089-.011h4.021a.359.359 0 0 1 .088.011M356.335 83.59a4.693 4.693 0 0 1-4.55-5.913h9.1a4.693 4.693 0 0 1-4.549 5.908m3.866-7.392h-7.733a4.7 4.7 0 0 1 7.733 0m25.7-2.028a4.707 4.707 0 0 1 3.867 2.028h-7.734a4.7 4.7 0 0 1 3.866-2.028m0 9.42a4.693 4.693 0 0 1-4.55-5.908h9.1a4.693 4.693 0 0 1-4.551 5.908" fill="#dbab24"/>
    <path d="m441.446 114.65 3.56-2.767-4.856-8.491 2.59-2.773-9.709-13.207-9.711 13.208 2.591 2.773-4.856 8.491 3.563 2.767-5.826 10.154h28.483z" fill="#fff"/>
    <path d="m448.551 125.545-6.141-10.705 3.559-2.77-4.9-8.575 2.637-2.823-10.676-14.516-10.672 14.516 2.637 2.823-4.9 8.575 3.562 2.767-6.143 10.706h14.778v10.766a.742.742 0 0 0 1.483 0v-10.764zm-22.973-11.086-3.564-2.768 4.808-8.407-2.545-2.722 8.748-11.9 8.752 11.9-2.544 2.722 4.808 8.407-3.56 2.768 5.507 9.6h-25.92zm102.017-49.051h-42.642v-22.24h-1.483v22.24h-2.049V46.324h-1.483v19.08h-3.27v9.662h.05v63.1l50.881-.027V65.408zm-1.483 8.179h-47.907v-6.7h47.906zm-47.906 63.1V75.07h47.914v61.594z" fill="#dbab24"/>
    <path d="M482.482 90.577h39.249v-10.13h-39.249zm1.483-8.647h36.282v7.163h-36.282zm-1.483 20.213h39.249v-10.13h-39.249zm1.483-8.647h36.282v7.163h-36.282zm-1.483 25.724h39.249v-10.13h-39.249zm1.483-8.646h36.282v7.163h-36.282zm-1.483 21.151h39.249v-10.129h-39.249zm1.483-8.646h36.282v7.161h-36.282z" fill="#dbab24"/>
    <path d="M518.341 105.334h14.12l-3.006-63.781h-8.104z" fill="#fff"/>
    <path d="M530.163 40.812h-9.524l-3.075 65.265h15.675zm-.769 15.2h-7.986l.365-7.761h7.256zm.07 1.483.369 7.828h-8.865l.369-7.828zm.439 9.312.364 7.721h-9.732l.365-7.721zm.433 9.2.379 8.043h-10.63l.379-8.043zm-1.588-33.713.21 4.47h-7.112l.211-4.47zm-9.63 62.3.9-19.059h10.769l.9 19.059z" fill="#dbab24"/>
    <path fill="#fff" d="M512.144 105.204h25.446v6.915h-25.446z"/>
    <path d="M538.331 112.858h-26.929v-8.4h26.929zm-25.446-1.483h23.96v-5.432h-23.96zm57.428-24.006.047-.111-.055-.024-2.036-35.031h-6.429l-3.634 62.538h13.7zm-8.895-2.338 7.459 3.2.534 9.185-8.5-3.653zm1.821-31.345h3.63l1.911 32.894-7.271-3.124zm-3.461 59.571 1.041-17.915 8.687 3.733.824 14.182zm-5.987 1.484h-13.7l3.635-62.538h6.429zm-12.125-1.483h10.553l-3.462-59.571h-3.629zm44.715-61.055h-6.428l-3.635 62.538h13.7zm-.046 24.748-6.186-2.555.446-7.685 5.27 2.176zm.1 1.645.466 8.007-7.274-3.13.435-7.509zm-1.448-24.909.788 13.556-5.083-2.1.666-11.457zm-5.452 31.361 7.462 3.211 1.453 25h-10.554zm-9.287-44.06a4.443 4.443 0 0 0-3.925-3.682A4.882 4.882 0 0 0 562 34.492a5.439 5.439 0 0 0 0 10.829 4.474 4.474 0 0 0 1.211-.168 4.665 4.665 0 0 0 2.5.766 3.231 3.231 0 0 0 2.7 1.5 3.414 3.414 0 0 0 3.3-3.507 3.546 3.546 0 0 0-1.477-2.92m-1.828 4.944a1.8 1.8 0 0 1-1.61-1.088l-.222-.47-.517.048a3.2 3.2 0 0 1-2.267-.67l-.331-.265-.4.15a3.026 3.026 0 0 1-1.076.2 3.965 3.965 0 0 1 0-7.863 3.468 3.468 0 0 1 3.139 2.315l.183.46.5.007a2.958 2.958 0 0 1 2.989 2.707l.021.42.373.2a2.037 2.037 0 0 1 1.041 1.826 1.933 1.933 0 0 1-1.821 2.024m15.768-2.954a3.4 3.4 0 0 0-3.281-2.038 3.2 3.2 0 0 0-3.434 2.891 2.768 2.768 0 0 0 1.456 2.366 3.508 3.508 0 1 0 5.259-3.219m-1.758 4.99a2.008 2.008 0 0 1-2.025-1.986c0-.053 0-.106.008-.156l.063-.556-.516-.214a1.426 1.426 0 0 1-1-1.225c0-.763.893-1.408 1.95-1.408a1.865 1.865 0 0 1 1.929 1.212l.075.378.352.156a1.981 1.981 0 0 1-.833 3.8m-58.787-18.857a5.808 5.808 0 1 0-5.468 7.75c.082 0 .165 0 .252-.007a4.989 4.989 0 1 0 5.216-7.743m-1.185 8.259a3.533 3.533 0 0 1-3.032-1.682l-.249-.4-.471.057a4.3 4.3 0 1 1 3.647-5.391l.128.473.485.069a3.453 3.453 0 0 1-.507 6.879" fill="#dbab24"/>
    <path d="M507.942 137.432h126.065l-11.121-13.4H507.942z" fill="#fff"/>
    <path d="M635.586 138.173H507.2v-14.886h116.034zm-126.9-1.483h123.745l-9.89-11.919H508.683z" fill="#dbab24"/>
    <path d="M501.282 124.016h135.3l-1.91-5.3H503.384z" fill="#fff"/>
    <path d="M637.64 124.758H500.191l2.69-6.783h132.314zm-135.265-1.483h133.153l-1.375-3.816H503.888zm130.89 1.563h1.483v12.397h-1.483z" fill="#dbab24"/>
    <path fill="#fff" d="M505.235 111.962h92.705v6.737h-92.705z"/>
    <path d="M598.682 119.441h-94.188v-8.22h94.188zm-92.7-1.483h91.221v-5.253h-91.226zm107.584-22.752h-25.22a.742.742 0 0 0 0 1.483h25.22c5.37 0 9.739 3.35 9.739 7.468v13.753a.742.742 0 1 0 1.483 0v-13.752c0-4.936-5.034-8.952-11.222-8.952" fill="#dbab24"/>
    <path d="M599.136 100.868h-10.421a.742.742 0 1 0 0 1.483h10.421c5.279 0 9.739 2.238 9.739 4.888v10.672a.742.742 0 0 0 1.483 0v-10.672c0-3.573-4.929-6.371-11.222-6.371m-1.456 32.468h22.5V128.1h-22.5zm21.02-1.483h-19.537v-2.269H618.7zm-49.003 1.483h22.5V128.1h-22.5zm1.484-3.753h19.536v2.269h-19.536zm-29.468 3.753h22.5V128.1h-22.5zm1.484-3.753h19.536v2.269h-19.536zm-29.466 3.753h22.5V128.1h-22.5zm1.483-3.753h19.536v2.269h-19.536zm-10.963 7.107v-13.141h-1.483v14.628h5.175v-1.484zm-338.89-50.884c0-9.449-11.348-21.539-11.831-22.049a.724.724 0 0 0-.548-.232.741.741 0 0 0-.541.246c-.458.51-11.218 12.6-11.218 22.035 0 9.683 4.793 16.717 11.407 16.764v34.334a.742.742 0 1 0 1.483 0v-34.44c6.319-.936 11.249-8.048 11.249-16.658m-11.254 15.155V94.77l5.36-10.463a.742.742 0 0 0-1.32-.676l-4.04 7.881V74.398a.742.742 0 0 0-1.483 0v17.429l-4.2-8.2a.742.742 0 0 0-1.32.676l5.517 10.773v6.005c-5.754-.048-9.923-6.458-9.923-15.28 0-7.712 8.114-17.834 10.3-20.422 2.287 2.563 10.871 12.7 10.871 20.422 0 7.769-4.266 14.2-9.766 15.155" fill="#dbab24"/>
    <path d="M150.532 91.292c0 9.513-7.327 17.228-16.363 17.228s-16.36-7.715-16.36-17.228 7.325-17.229 16.36-17.229 16.363 7.715 16.363 17.229" fill="#fff"/>
    <path d="M151.273 91.296c0-9.909-7.673-17.971-17.105-17.971s-17.1 8.062-17.1 17.971c0 9.555 7.136 17.39 16.1 17.936v27.459a.742.742 0 0 0 1.483 0v-27.442c9.209-.27 16.622-8.218 16.622-17.956m-16.622 16.473v-4.2l6.612-9.1a.742.742 0 0 0-1.2-.872l-5.411 7.452V88.833a.742.742 0 0 0-1.483 0v12.208l-5.411-7.452a.742.742 0 0 0-1.2.872l6.611 9.1v4.175c-8.147-.547-14.618-7.713-14.618-16.448 0-9.091 7.007-16.488 15.619-16.488s15.622 7.4 15.622 16.488c0 8.92-6.748 16.2-15.139 16.473" fill="#dbab24"/>
    <path d="M159.8 136.994a8.757 8.757 0 0 1-2.633.4h-14.8c-4.453 0-8.062-3.286-8.062-7.341s3.609-7.34 8.062-7.34a8.8 8.8 0 0 1 2.507.363 8.212 8.212 0 0 1 15.922.423 7.636 7.636 0 0 1 3.988 4.143z" fill="#fff"/>
    <path d="M157.167 138.136h-14.8c-4.854 0-8.8-3.626-8.8-8.083s3.949-8.082 8.8-8.082a9.553 9.553 0 0 1 1.973.206 8.729 8.729 0 0 1 8.458-5.841 8.64 8.64 0 0 1 8.667 6.664 8.262 8.262 0 0 1 4.013 4.377.742.742 0 1 1-1.386.529 6.937 6.937 0 0 0-3.606-3.733.743.743 0 0 1-.425-.573c-.451-3.3-3.574-5.78-7.262-5.78a7.149 7.149 0 0 0-7.2 5.4.741.741 0 0 1-.938.563 8.068 8.068 0 0 0-2.3-.332c-4.036 0-7.32 2.96-7.32 6.6s3.284 6.6 7.32 6.6h14.8a8.021 8.021 0 0 0 2.41-.366.742.742 0 1 1 .445 1.415 9.5 9.5 0 0 1-2.855.435" fill="#dbab24"/>
    <path d="M161.529 129.765a4.514 4.514 0 0 1 1.287.187 4.214 4.214 0 0 1 8.172.216 3.749 3.749 0 0 1 2.276 3.364 3.967 3.967 0 0 1-4.139 3.768h-7.6a3.784 3.784 0 1 1 0-7.535" fill="#fff"/>
    <path d="M169.126 138.041h-7.6a4.523 4.523 0 1 1 0-9.019 5.318 5.318 0 0 1 .775.057 4.88 4.88 0 0 1 4.58-2.951 4.817 4.817 0 0 1 4.766 3.542 4.424 4.424 0 0 1 2.356 3.86 4.711 4.711 0 0 1-4.88 4.51m-7.6-7.535a3.046 3.046 0 1 0 0 6.052h7.6a3.232 3.232 0 0 0 3.4-3.027 3 3 0 0 0-1.844-2.691.743.743 0 0 1-.425-.573 3.476 3.476 0 0 0-6.71-.169.742.742 0 0 1-.939.564 3.78 3.78 0 0 0-1.075-.156" fill="#dbab24"/>
    <path d="M438.693 133.484a8.466 8.466 0 0 1-.55.018 4.22 4.22 0 0 1-2.6-.69 2.166 2.166 0 0 1-.85-1.584c-.014-.432-.03-.821-.045-1.2-.146-3.788-.242-6.289 1.572-6.394.869-.051 1.316-2.07 1.71-3.854.591-2.663 1.258-5.683 3.733-6.5a23.822 23.822 0 0 1 6.968-1 23.47 23.47 0 0 1 3.7.286 17.976 17.976 0 0 1 6.8 2.487 16.261 16.261 0 0 1 5.565 5.972c.189.049.6.139 1.506.3 3.128.562 8.3 1.49 8.311 5.31 0 .059 0 .33.01.683v.072c.031 2.079.038 2.814.029 2.967-.189 3.046-4.583 3.046-7.793 3.046h-.379z" fill="#fff"/>
    <path d="M438.142 134.244a4.918 4.918 0 0 1-3.055-.845 2.925 2.925 0 0 1-1.136-2.111 149.14 149.14 0 0 0-.047-1.228c-.156-4.053-.269-6.986 2.23-7.162.413-.3.855-2.3 1.07-3.276.6-2.72 1.351-6.1 4.225-7.042a24.578 24.578 0 0 1 7.2-1.037 24.238 24.238 0 0 1 3.818.3 18.712 18.712 0 0 1 7.082 2.593 16.932 16.932 0 0 1 5.654 5.95c.231.049.591.12 1.154.222 3.335.6 8.913 1.6 8.921 6.038 0 .059 0 .326.009.672v.074c.035 2.378.038 2.86.028 3.023-.232 3.742-5.228 3.742-8.534 3.742h-.38v-1.483h.379c3.639 0 6.918-.18 7.053-2.351.009-.162-.009-1.469-.031-2.909v-.073a67.003 67.003 0 0 1-.009-.693c-.006-3.2-4.82-4.062-7.7-4.579-.774-.14-1.3-.246-1.565-.315l-.308-.08-.154-.278a15.528 15.528 0 0 0-5.312-5.7 17.242 17.242 0 0 0-6.525-2.382 22.752 22.752 0 0 0-3.584-.276 23.017 23.017 0 0 0-6.737.963c-2.071.681-2.691 3.478-3.238 5.946-.5 2.243-.962 4.356-2.393 4.44-1.038.06-1.011 2.072-.874 5.624.015.38.031.771.045 1.2a1.406 1.406 0 0 0 .56 1.021 3.576 3.576 0 0 0 2.15.537c.179 0 .349-.007.5-.017l.1 1.48c-.183.012-.385.02-.6.02" fill="#dbab24"/>
    <path d="M443.172 129.55a3.865 3.865 0 1 0 3.865 3.864 3.869 3.869 0 0 0-3.865-3.864" fill="#fff"/>
    <path d="M443.172 138.022a4.607 4.607 0 1 1 4.606-4.608 4.612 4.612 0 0 1-4.606 4.608m0-7.73a3.124 3.124 0 1 0 3.123 3.123 3.127 3.127 0 0 0-3.123-3.123" fill="#dbab24"/>
    <path d="M462.625 129.55a3.865 3.865 0 1 0 3.867 3.864 3.869 3.869 0 0 0-3.867-3.864" fill="#fff"/>
    <path d="M462.623 138.022a4.607 4.607 0 1 1 4.609-4.608 4.612 4.612 0 0 1-4.609 4.608m0-7.73a3.124 3.124 0 1 0 3.125 3.123 3.126 3.126 0 0 0-3.125-3.123" fill="#dbab24"/>
    <path fill="#fff" d="M459.098 133.392h-11.649"/>
    <path d="M461.695 122.124a6.78 6.78 0 0 0-3.659-4.723 15.7 15.7 0 0 0-6.812-1.852 29.355 29.355 0 0 0-1.546-.044c-2.922 0-5.1.516-6.661 1.578a6.075 6.075 0 0 0-2.678 4.684l-.183 1.734 21.813.507zm-19.88-.2a4.617 4.617 0 0 1 2.036-3.612 10.247 10.247 0 0 1 5.734-1.319v5.245l-7.783-.181zm9.253.349v-5.242h.076a14.21 14.21 0 0 1 6.156 1.658 5.351 5.351 0 0 1 2.928 3.65l.021.144zm-3.619 10.377h11.649v1.483h-11.649zm5.492-7.013a.742.742 0 0 0 0 1.484h3.25a.742.742 0 0 0 0-1.484z" fill="#dbab24"/>
    <path d="M407.643 126.554c0-.059.008-.123.008-.183a3.481 3.481 0 0 0-3.642-3.3h-1.365c-.555-2.011-2.79-3.515-5.467-3.515h-2.278c-2.678 0-4.911 1.5-5.464 3.515h-3.244a3.482 3.482 0 0 0-3.644 3.3c0 .06.007.125.011.183-2.905.627-5.046 2.748-5.046 5.27 0 3.013 3.053 5.457 6.818 5.457h21.542c3.765 0 6.82-2.445 6.82-5.457 0-2.521-2.142-4.643-5.047-5.27" fill="#fff"/>
    <path d="M405.87 138.022h-21.542c-4.168 0-7.56-2.781-7.56-6.2 0-2.649 2.052-4.988 5.057-5.85a4.271 4.271 0 0 1 4.365-3.641h2.716a6.333 6.333 0 0 1 5.992-3.514h2.278a6.337 6.337 0 0 1 5.995 3.514h.838a4.27 4.27 0 0 1 4.362 3.64c3.008.862 5.061 3.2 5.061 5.852 0 3.418-3.392 6.2-7.562 6.2m-19.679-14.208a2.749 2.749 0 0 0-2.9 2.555c0 .025 0 .051.005.076l.046.7-.625.135c-2.626.566-4.461 2.435-4.461 4.544 0 2.6 2.726 4.716 6.077 4.716h21.542c3.352 0 6.078-2.116 6.078-4.716 0-2.109-1.835-3.978-4.462-4.544l-.595-.129.017-.78a2.747 2.747 0 0 0-2.9-2.555h-1.93l-.15-.545c-.474-1.72-2.473-2.969-4.752-2.969h-2.278c-2.278 0-4.275 1.248-4.749 2.969l-.15.545z" fill="#dbab24"/>
    <path fill="#dbab24" d="M0 136.653h650.992v1.483H0z"/>
  </g>
</svg>

